<svg width="218" height="61" viewBox="0 0 218 61" fill="none" xmlns="http://www.w3.org/2000/svg">
<rect y="1" width="218" height="58" rx="29" fill="#2135EB"/>
<path d="M71 58.5C145.698 55.5684 149.067 25.1208 142 1.00002" stroke="#ED924D" stroke-width="0.5"/>
<path d="M65.7054 58.5C140.403 55.5684 143.773 25.1208 136.705 1.00002" stroke="#ED924D" stroke-width="0.5"/>
<path d="M76.7054 58.5C151.403 55.5684 154.773 25.1208 147.705 1.00002" stroke="#ED924D" stroke-width="0.5"/>
<path d="M41.8125 27H39.875C39.7604 26.4427 39.5599 25.9531 39.2734 25.5312C38.9922 25.1094 38.6484 24.7552 38.2422 24.4688C37.8411 24.1771 37.3958 23.9583 36.9063 23.8125C36.4167 23.6667 35.9063 23.5937 35.375 23.5937C34.4063 23.5937 33.5286 23.8385 32.7422 24.3281C31.9609 24.8177 31.3385 25.5391 30.875 26.4922C30.4167 27.4453 30.1875 28.6146 30.1875 30C30.1875 31.3854 30.4167 32.5547 30.875 33.5078C31.3385 34.4609 31.9609 35.1823 32.7422 35.6719C33.5286 36.1615 34.4063 36.4062 35.375 36.4062C35.9063 36.4062 36.4167 36.3333 36.9063 36.1875C37.3958 36.0417 37.8411 35.8255 38.2422 35.5391C38.6484 35.2474 38.9922 34.8906 39.2734 34.4687C39.5599 34.0417 39.7604 33.5521 39.875 33H41.8125C41.6667 33.8177 41.401 34.5495 41.0156 35.1953C40.6302 35.8411 40.151 36.3906 39.5781 36.8437C39.0052 37.2917 38.362 37.6328 37.6484 37.8672C36.9401 38.1016 36.1823 38.2187 35.375 38.2187C34.0104 38.2187 32.7969 37.8854 31.7344 37.2188C30.6719 36.5521 29.8359 35.6042 29.2266 34.375C28.6172 33.1458 28.3125 31.6875 28.3125 30C28.3125 28.3125 28.6172 26.8542 29.2266 25.625C29.8359 24.3958 30.6719 23.4479 31.7344 22.7812C32.7969 22.1146 34.0104 21.7812 35.375 21.7812C36.1823 21.7812 36.9401 21.8984 37.6484 22.1328C38.362 22.3672 39.0052 22.7109 39.5781 23.1641C40.151 23.612 40.6302 24.1589 41.0156 24.8047C41.401 25.4453 41.6667 26.1771 41.8125 27ZM49.5684 38.25C48.485 38.25 47.5345 37.9922 46.7168 37.4766C45.9043 36.9609 45.2689 36.2396 44.8105 35.3125C44.3574 34.3854 44.1309 33.3021 44.1309 32.0625C44.1309 30.8125 44.3574 29.7214 44.8105 28.7891C45.2689 27.8568 45.9043 27.1328 46.7168 26.6172C47.5345 26.1016 48.485 25.8438 49.5684 25.8438C50.6517 25.8438 51.5996 26.1016 52.4121 26.6172C53.2298 27.1328 53.8652 27.8568 54.3184 28.7891C54.7767 29.7214 55.0059 30.8125 55.0059 32.0625C55.0059 33.3021 54.7767 34.3854 54.3184 35.3125C53.8652 36.2396 53.2298 36.9609 52.4121 37.4766C51.5996 37.9922 50.6517 38.25 49.5684 38.25ZM49.5684 36.5938C50.3913 36.5938 51.0684 36.3828 51.5996 35.9609C52.1309 35.5391 52.5241 34.9844 52.7793 34.2969C53.0345 33.6094 53.1621 32.8646 53.1621 32.0625C53.1621 31.2604 53.0345 30.513 52.7793 29.8203C52.5241 29.1276 52.1309 28.5677 51.5996 28.1406C51.0684 27.7135 50.3913 27.5 49.5684 27.5C48.7454 27.5 48.0684 27.7135 47.5371 28.1406C47.0059 28.5677 46.6126 29.1276 46.3574 29.8203C46.1022 30.513 45.9746 31.2604 45.9746 32.0625C45.9746 32.8646 46.1022 33.6094 46.3574 34.2969C46.6126 34.9844 47.0059 35.5391 47.5371 35.9609C48.0684 36.3828 48.7454 36.5938 49.5684 36.5938ZM59.6641 30.7812V38H57.8203V26H59.6016V27.875H59.7578C60.0391 27.2656 60.4661 26.776 61.0391 26.4063C61.612 26.0313 62.3516 25.8438 63.2578 25.8438C64.0703 25.8438 64.7813 26.0104 65.3906 26.3437C66 26.6719 66.474 27.1719 66.8125 27.8437C67.151 28.5104 67.3203 29.3542 67.3203 30.375V38H65.4766V30.5C65.4766 29.5573 65.2318 28.8229 64.7422 28.2969C64.2526 27.7656 63.5807 27.5 62.7266 27.5C62.138 27.5 61.612 27.6276 61.1484 27.8828C60.6901 28.138 60.3281 28.5104 60.0625 29C59.7969 29.4896 59.6641 30.0833 59.6641 30.7812ZM75.9082 26V27.5625H69.6895V26H75.9082ZM71.502 23.125H73.3457V34.5625C73.3457 35.0833 73.4212 35.474 73.5723 35.7344C73.7285 35.9896 73.9264 36.1615 74.166 36.25C74.4108 36.3333 74.6686 36.375 74.9395 36.375C75.1426 36.375 75.3092 36.3646 75.4395 36.3437C75.5697 36.3177 75.6738 36.2969 75.752 36.2812L76.127 37.9375C76.002 37.9844 75.8275 38.0313 75.6035 38.0781C75.3796 38.1302 75.0957 38.1563 74.752 38.1563C74.2311 38.1563 73.7207 38.0443 73.2207 37.8203C72.7259 37.5964 72.3145 37.2552 71.9863 36.7969C71.6634 36.3385 71.502 35.7604 71.502 35.0625V23.125ZM82.2129 38.2813C81.4525 38.2813 80.7624 38.138 80.1426 37.8516C79.5228 37.5599 79.0306 37.1406 78.666 36.5938C78.3014 36.0417 78.1191 35.375 78.1191 34.5937C78.1191 33.9062 78.2546 33.349 78.5254 32.9219C78.7962 32.4896 79.1582 32.151 79.6113 31.9062C80.0645 31.6615 80.5645 31.4792 81.1113 31.3594C81.6634 31.2344 82.2181 31.1354 82.7754 31.0625C83.5046 30.9687 84.0957 30.8984 84.5488 30.8516C85.0072 30.7995 85.3405 30.7135 85.5488 30.5937C85.7624 30.474 85.8691 30.2656 85.8691 29.9687V29.9062C85.8691 29.1354 85.6582 28.5365 85.2363 28.1094C84.8197 27.6823 84.1868 27.4687 83.3379 27.4687C82.4577 27.4687 81.7676 27.6615 81.2676 28.0469C80.7676 28.4323 80.416 28.8437 80.2129 29.2812L78.4629 28.6562C78.7754 27.9271 79.1921 27.3594 79.7129 26.9531C80.2389 26.5417 80.8118 26.2552 81.4316 26.0937C82.0566 25.9271 82.6712 25.8438 83.2754 25.8438C83.6608 25.8438 84.1035 25.8906 84.6035 25.9844C85.1087 26.0729 85.5957 26.2578 86.0645 26.5391C86.5384 26.8203 86.9316 27.2448 87.2441 27.8125C87.5566 28.3802 87.7129 29.1406 87.7129 30.0938V38H85.8691V36.375H85.7754C85.6504 36.6354 85.4421 36.9141 85.1504 37.2109C84.8587 37.5078 84.4707 37.7604 83.9863 37.9687C83.502 38.1771 82.9108 38.2813 82.2129 38.2813ZM82.4941 36.625C83.2233 36.625 83.8379 36.4818 84.3379 36.1953C84.8431 35.9089 85.2233 35.5391 85.4785 35.0859C85.7389 34.6328 85.8691 34.1562 85.8691 33.6562V31.9687C85.791 32.0625 85.6191 32.1484 85.3535 32.2266C85.0931 32.2995 84.791 32.3646 84.4473 32.4219C84.1087 32.474 83.778 32.5208 83.4551 32.5625C83.1374 32.599 82.8796 32.6302 82.6816 32.6562C82.2025 32.7187 81.7546 32.8203 81.3379 32.9609C80.9264 33.0964 80.5931 33.3021 80.3379 33.5781C80.0879 33.849 79.9629 34.2187 79.9629 34.6875C79.9629 35.3281 80.1999 35.8125 80.6738 36.1406C81.153 36.4635 81.7598 36.625 82.4941 36.625ZM95.9531 38.25C94.8281 38.25 93.8594 37.9844 93.0469 37.4531C92.2344 36.9219 91.6094 36.1901 91.1719 35.2578C90.7344 34.3255 90.5156 33.2604 90.5156 32.0625C90.5156 30.8437 90.7396 29.7682 91.1875 28.8359C91.6406 27.8984 92.2708 27.1667 93.0781 26.6406C93.8906 26.1094 94.8385 25.8438 95.9219 25.8438C96.7656 25.8438 97.526 26 98.2031 26.3125C98.8802 26.625 99.4349 27.0625 99.8672 27.625C100.299 28.1875 100.568 28.8437 100.672 29.5937H98.8281C98.6875 29.0469 98.375 28.5625 97.8906 28.1406C97.4115 27.7135 96.7656 27.5 95.9531 27.5C95.2344 27.5 94.6042 27.6875 94.0625 28.0625C93.526 28.4323 93.1068 28.9557 92.8047 29.6328C92.5078 30.3047 92.3594 31.0937 92.3594 32C92.3594 32.9271 92.5052 33.7344 92.7969 34.4219C93.0938 35.1094 93.5104 35.6432 94.0469 36.0234C94.5885 36.4036 95.224 36.5938 95.9531 36.5938C96.4323 36.5938 96.8672 36.5104 97.2578 36.3437C97.6484 36.1771 97.9792 35.9375 98.25 35.625C98.5208 35.3125 98.7135 34.9375 98.8281 34.5H100.672C100.568 35.2083 100.31 35.8464 99.8984 36.4141C99.4922 36.9766 98.9531 37.4245 98.2813 37.7578C97.6146 38.0859 96.8385 38.25 95.9531 38.25ZM108.586 26V27.5625H102.367V26H108.586ZM104.18 23.125H106.023V34.5625C106.023 35.0833 106.099 35.474 106.25 35.7344C106.406 35.9896 106.604 36.1615 106.844 36.25C107.089 36.3333 107.346 36.375 107.617 36.375C107.82 36.375 107.987 36.3646 108.117 36.3437C108.247 36.3177 108.352 36.2969 108.43 36.2812L108.805 37.9375C108.68 37.9844 108.505 38.0313 108.281 38.0781C108.057 38.1302 107.773 38.1563 107.43 38.1563C106.909 38.1563 106.398 38.0443 105.898 37.8203C105.404 37.5964 104.992 37.2552 104.664 36.7969C104.341 36.3385 104.18 35.7604 104.18 35.0625V23.125ZM125.109 33.0937V26H126.953V38H125.109V35.9687H124.984C124.703 36.5781 124.266 37.0964 123.672 37.5234C123.078 37.9453 122.328 38.1563 121.422 38.1563C120.672 38.1563 120.005 37.9922 119.422 37.6641C118.839 37.3307 118.38 36.8307 118.047 36.1641C117.714 35.4922 117.547 34.6458 117.547 33.625V26H119.391V33.5C119.391 34.375 119.635 35.0729 120.125 35.5938C120.62 36.1146 121.25 36.375 122.016 36.375C122.474 36.375 122.94 36.2578 123.414 36.0234C123.893 35.7891 124.294 35.4297 124.617 34.9453C124.945 34.4609 125.109 33.8437 125.109 33.0937ZM138.83 28.6875L137.174 29.1562C137.07 28.8802 136.916 28.612 136.713 28.3516C136.515 28.0859 136.244 27.8672 135.9 27.6953C135.557 27.5234 135.117 27.4375 134.58 27.4375C133.846 27.4375 133.234 27.6068 132.744 27.9453C132.26 28.2786 132.018 28.7031 132.018 29.2187C132.018 29.6771 132.184 30.0391 132.518 30.3047C132.851 30.5703 133.372 30.7917 134.08 30.9687L135.861 31.4063C136.934 31.6667 137.734 32.0651 138.26 32.6016C138.786 33.1328 139.049 33.8177 139.049 34.6562C139.049 35.3437 138.851 35.9583 138.455 36.5C138.064 37.0417 137.518 37.4688 136.814 37.7813C136.111 38.0938 135.294 38.25 134.361 38.25C133.137 38.25 132.124 37.9844 131.322 37.4531C130.52 36.9219 130.012 36.1458 129.799 35.125L131.549 34.6875C131.715 35.3333 132.031 35.8177 132.494 36.1406C132.963 36.4635 133.575 36.625 134.33 36.625C135.189 36.625 135.872 36.4427 136.377 36.0781C136.887 35.7083 137.143 35.2656 137.143 34.75C137.143 34.3333 136.997 33.9844 136.705 33.7031C136.413 33.4167 135.965 33.2031 135.361 33.0625L133.361 32.5937C132.262 32.3333 131.455 31.9297 130.939 31.3828C130.429 30.8307 130.174 30.1406 130.174 29.3125C130.174 28.6354 130.364 28.0365 130.744 27.5156C131.13 26.9948 131.653 26.5859 132.314 26.2891C132.981 25.9922 133.736 25.8438 134.58 25.8438C135.768 25.8438 136.7 26.1042 137.377 26.625C138.059 27.1458 138.544 27.8333 138.83 28.6875ZM149.855 30.7812V38H148.012V26H149.793V27.875H149.949C150.23 27.2656 150.658 26.776 151.23 26.4063C151.803 26.0313 152.543 25.8438 153.449 25.8438C154.262 25.8438 154.973 26.0104 155.582 26.3437C156.191 26.6719 156.665 27.1719 157.004 27.8437C157.342 28.5104 157.512 29.3542 157.512 30.375V38H155.668V30.5C155.668 29.5573 155.423 28.8229 154.934 28.2969C154.444 27.7656 153.772 27.5 152.918 27.5C152.329 27.5 151.803 27.6276 151.34 27.8828C150.882 28.138 150.52 28.5104 150.254 29C149.988 29.4896 149.855 30.0833 149.855 30.7812ZM165.756 38.25C164.673 38.25 163.722 37.9922 162.904 37.4766C162.092 36.9609 161.456 36.2396 160.998 35.3125C160.545 34.3854 160.318 33.3021 160.318 32.0625C160.318 30.8125 160.545 29.7214 160.998 28.7891C161.456 27.8568 162.092 27.1328 162.904 26.6172C163.722 26.1016 164.673 25.8438 165.756 25.8438C166.839 25.8438 167.787 26.1016 168.6 26.6172C169.417 27.1328 170.053 27.8568 170.506 28.7891C170.964 29.7214 171.193 30.8125 171.193 32.0625C171.193 33.3021 170.964 34.3854 170.506 35.3125C170.053 36.2396 169.417 36.9609 168.6 37.4766C167.787 37.9922 166.839 38.25 165.756 38.25ZM165.756 36.5938C166.579 36.5938 167.256 36.3828 167.787 35.9609C168.318 35.5391 168.712 34.9844 168.967 34.2969C169.222 33.6094 169.35 32.8646 169.35 32.0625C169.35 31.2604 169.222 30.513 168.967 29.8203C168.712 29.1276 168.318 28.5677 167.787 28.1406C167.256 27.7135 166.579 27.5 165.756 27.5C164.933 27.5 164.256 27.7135 163.725 28.1406C163.193 28.5677 162.8 29.1276 162.545 29.8203C162.29 30.513 162.162 31.2604 162.162 32.0625C162.162 32.8646 162.29 33.6094 162.545 34.2969C162.8 34.9844 163.193 35.5391 163.725 35.9609C164.256 36.3828 164.933 36.5938 165.756 36.5938ZM176.318 38L172.662 26H174.6L177.193 35.1875H177.318L179.881 26H181.85L184.381 35.1562H184.506L187.1 26H189.037L185.381 38H183.568L180.943 28.7812H180.756L178.131 38H176.318Z" fill="#DFEEF4"/>
</svg>
