<svg width="183" height="29" viewBox="0 0 183 29" fill="none" xmlns="http://www.w3.org/2000/svg">
<g filter="url(#filter0_d_1_46)">
<path d="M20.6225 8.18359H16.734C16.663 7.68052 16.518 7.23366 16.299 6.84304C16.08 6.4465 15.7989 6.10914 15.4556 5.83097C15.1123 5.55279 14.7158 5.33972 14.266 5.19176C13.8221 5.0438 13.3397 4.96982 12.8189 4.96982C11.8778 4.96982 11.0581 5.2036 10.3597 5.67116C9.66134 6.13281 9.11979 6.80753 8.73509 7.69531C8.35038 8.57718 8.15803 9.64844 8.15803 10.9091C8.15803 12.2053 8.35038 13.2943 8.73509 14.1761C9.12571 15.058 9.67022 15.7238 10.3686 16.1737C11.067 16.6235 11.8749 16.8484 12.7923 16.8484C13.3072 16.8484 13.7836 16.7803 14.2216 16.6442C14.6655 16.508 15.0591 16.3098 15.4023 16.0494C15.7456 15.783 16.0297 15.4605 16.2546 15.0817C16.4854 14.7029 16.6452 14.2708 16.734 13.7855L20.6225 13.8033C20.5219 14.6378 20.2704 15.4427 19.8679 16.218C19.4714 16.9875 18.9357 17.677 18.261 18.2866C17.5922 18.8903 16.7932 19.3697 15.864 19.7248C14.9407 20.074 13.8961 20.2486 12.7301 20.2486C11.1084 20.2486 9.65838 19.8816 8.37997 19.1477C7.10748 18.4138 6.10133 17.3514 5.36151 15.9606C4.6276 14.5697 4.26065 12.8859 4.26065 10.9091C4.26065 8.92637 4.63352 7.23958 5.37926 5.84872C6.125 4.45786 7.13707 3.39844 8.41548 2.67045C9.69389 1.93655 11.1321 1.5696 12.7301 1.5696C13.7836 1.5696 14.7602 1.71757 15.6598 2.01349C16.5653 2.30942 17.3673 2.74148 18.0657 3.30966C18.7641 3.87192 19.3323 4.56143 19.7702 5.3782C20.2141 6.19496 20.4982 7.13009 20.6225 8.18359ZM23.3081 20V6.36364H27.09V20H23.3081ZM25.2079 4.60582C24.6457 4.60582 24.1633 4.41939 23.7608 4.04652C23.3643 3.66773 23.166 3.21496 23.166 2.68821C23.166 2.16738 23.3643 1.72053 23.7608 1.34766C24.1633 0.968868 24.6457 0.779473 25.2079 0.779473C25.7702 0.779473 26.2496 0.968868 26.6461 1.34766C27.0486 1.72053 27.2498 2.16738 27.2498 2.68821C27.2498 3.21496 27.0486 3.66773 26.6461 4.04652C26.2496 4.41939 25.7702 4.60582 25.2079 4.60582ZM30.1196 20V6.36364H33.7861V8.7429H33.9282C34.1768 7.89654 34.594 7.25734 35.18 6.82528C35.7659 6.38731 36.4406 6.16832 37.2041 6.16832C37.3935 6.16832 37.5977 6.18016 37.8167 6.20383C38.0357 6.22751 38.228 6.26006 38.3937 6.30149V9.65731C38.2162 9.60405 37.9706 9.5567 37.6569 9.51527C37.3432 9.47384 37.0561 9.45312 36.7957 9.45312C36.2394 9.45312 35.7422 9.57446 35.3042 9.81712C34.8722 10.0539 34.5289 10.3853 34.2744 10.8114C34.0258 11.2376 33.9015 11.7288 33.9015 12.2852V20H30.1196ZM45.8755 20.2663C44.4788 20.2663 43.2773 19.9704 42.2711 19.3786C41.2709 18.7808 40.5015 17.9522 39.9629 16.8928C39.4302 15.8333 39.1639 14.6141 39.1639 13.2351C39.1639 11.8383 39.4332 10.6132 39.9718 9.55966C40.5163 8.50024 41.2886 7.6746 42.2889 7.08274C43.2891 6.48497 44.4788 6.18608 45.8578 6.18608C47.0474 6.18608 48.0891 6.40211 48.9828 6.83416C49.8765 7.26622 50.5837 7.87287 51.1046 8.65412C51.6254 9.43537 51.9125 10.3527 51.9657 11.4062H48.3968C48.2962 10.7256 48.0299 10.1781 47.5978 9.76385C47.1717 9.34363 46.6124 9.13352 45.9199 9.13352C45.334 9.13352 44.822 9.29332 44.3841 9.61293C43.952 9.92661 43.6146 10.3853 43.372 10.989C43.1293 11.5927 43.008 12.3236 43.008 13.1818C43.008 14.0518 43.1264 14.7917 43.3631 15.4013C43.6058 16.0109 43.9461 16.4755 44.3841 16.7951C44.822 17.1147 45.334 17.2745 45.9199 17.2745C46.352 17.2745 46.7396 17.1857 47.0829 17.0082C47.4321 16.8306 47.7192 16.5732 47.9441 16.2358C48.1749 15.8925 48.3258 15.4812 48.3968 15.0018H51.9657C51.9065 16.0434 51.6225 16.9608 51.1135 17.7539C50.6104 18.5411 49.915 19.1566 49.0272 19.6005C48.1394 20.0444 47.0888 20.2663 45.8755 20.2663ZM63.1318 14.1939V6.36364H66.9138V20H63.2828V17.5231H63.1407C62.8329 18.3221 62.321 18.9643 61.6048 19.4496C60.8946 19.9349 60.0276 20.1776 59.0036 20.1776C58.0922 20.1776 57.2902 19.9704 56.5977 19.5561C55.9053 19.1418 55.3637 18.5529 54.9731 17.7894C54.5884 17.0259 54.3931 16.1115 54.3872 15.0462V6.36364H58.1691V14.3714C58.175 15.1764 58.3911 15.8126 58.8172 16.2802C59.2433 16.7478 59.8145 16.9815 60.5306 16.9815C60.9864 16.9815 61.4125 16.878 61.809 16.6708C62.2056 16.4577 62.5252 16.1441 62.7678 15.7298C63.0164 15.3155 63.1378 14.8035 63.1318 14.1939ZM69.9389 20V6.36364H73.7209V20H69.9389ZM71.8388 4.60582C71.2765 4.60582 70.7942 4.41939 70.3917 4.04652C69.9951 3.66773 69.7969 3.21496 69.7969 2.68821C69.7969 2.16738 69.9951 1.72053 70.3917 1.34766C70.7942 0.968868 71.2765 0.779473 71.8388 0.779473C72.401 0.779473 72.8804 0.968868 73.277 1.34766C73.6795 1.72053 73.8807 2.16738 73.8807 2.68821C73.8807 3.21496 73.6795 3.66773 73.277 4.04652C72.8804 4.41939 72.401 4.60582 71.8388 4.60582ZM84.0036 6.36364V9.20455H75.7916V6.36364H84.0036ZM77.656 3.09659H81.4379V15.8097C81.4379 16.1589 81.4912 16.4311 81.5977 16.6264C81.7043 16.8158 81.8522 16.949 82.0416 17.0259C82.2369 17.1029 82.4619 17.1413 82.7164 17.1413C82.8939 17.1413 83.0715 17.1265 83.249 17.0969C83.4266 17.0614 83.5627 17.0348 83.6574 17.017L84.2522 19.8313C84.0628 19.8905 83.7965 19.9586 83.4532 20.0355C83.1099 20.1184 82.6927 20.1687 82.2014 20.1864C81.29 20.2219 80.491 20.1006 79.8044 19.8224C79.1238 19.5443 78.5941 19.1122 78.2153 18.5263C77.8365 17.9403 77.6501 17.2005 77.656 16.3068V3.09659ZM102.039 1.81818V20H98.7187L90.8085 8.55646H90.6753V20H86.8312V1.81818H90.2048L98.0528 13.2528H98.2126V1.81818H102.039ZM111.358 20.2663C109.956 20.2663 108.748 19.9822 107.736 19.4141C106.73 18.84 105.955 18.0291 105.41 16.9815C104.866 15.928 104.594 14.6822 104.594 13.244C104.594 11.8413 104.866 10.6102 105.41 9.55078C105.955 8.49136 106.721 7.66572 107.71 7.07386C108.704 6.48201 109.87 6.18608 111.208 6.18608C112.107 6.18608 112.945 6.33108 113.72 6.62109C114.501 6.90518 115.182 7.33428 115.762 7.90838C116.348 8.48248 116.804 9.20455 117.129 10.0746C117.455 10.9387 117.617 11.9508 117.617 13.1108V14.1495H106.103V11.8058H114.057C114.057 11.2612 113.939 10.7789 113.702 10.3587C113.465 9.93845 113.137 9.60997 112.717 9.37322C112.302 9.13056 111.82 9.00923 111.27 9.00923C110.696 9.00923 110.187 9.1424 109.743 9.40874C109.305 9.66915 108.961 10.0213 108.713 10.4652C108.464 10.9032 108.337 11.3915 108.331 11.93V14.1584C108.331 14.8331 108.455 15.4161 108.704 15.9073C108.959 16.3986 109.317 16.7773 109.778 17.0437C110.24 17.31 110.787 17.4432 111.421 17.4432C111.841 17.4432 112.226 17.384 112.575 17.2656C112.924 17.1473 113.223 16.9697 113.471 16.733C113.72 16.4962 113.909 16.2062 114.04 15.8629L117.537 16.0938C117.36 16.9342 116.996 17.6681 116.445 18.2955C115.901 18.9169 115.197 19.4022 114.333 19.7514C113.474 20.0947 112.483 20.2663 111.358 20.2663ZM127.339 6.36364V9.20455H119.127V6.36364H127.339ZM120.991 3.09659H124.773V15.8097C124.773 16.1589 124.826 16.4311 124.933 16.6264C125.039 16.8158 125.187 16.949 125.377 17.0259C125.572 17.1029 125.797 17.1413 126.051 17.1413C126.229 17.1413 126.406 17.1265 126.584 17.0969C126.762 17.0614 126.898 17.0348 126.992 17.017L127.587 19.8313C127.398 19.8905 127.131 19.9586 126.788 20.0355C126.445 20.1184 126.028 20.1687 125.536 20.1864C124.625 20.2219 123.826 20.1006 123.139 19.8224C122.459 19.5443 121.929 19.1122 121.55 18.5263C121.171 17.9403 120.985 17.2005 120.991 16.3068V3.09659ZM145.915 8.18359H142.027C141.956 7.68052 141.811 7.23366 141.592 6.84304C141.373 6.4465 141.092 6.10914 140.749 5.83097C140.405 5.55279 140.009 5.33972 139.559 5.19176C139.115 5.0438 138.633 4.96982 138.112 4.96982C137.171 4.96982 136.351 5.2036 135.653 5.67116C134.954 6.13281 134.413 6.80753 134.028 7.69531C133.643 8.57718 133.451 9.64844 133.451 10.9091C133.451 12.2053 133.643 13.2943 134.028 14.1761C134.419 15.058 134.963 15.7238 135.662 16.1737C136.36 16.6235 137.168 16.8484 138.085 16.8484C138.6 16.8484 139.077 16.7803 139.515 16.6442C139.958 16.508 140.352 16.3098 140.695 16.0494C141.039 15.783 141.323 15.4605 141.548 15.0817C141.778 14.7029 141.938 14.2708 142.027 13.7855L145.915 13.8033C145.815 14.6378 145.563 15.4427 145.161 16.218C144.764 16.9875 144.229 17.677 143.554 18.2866C142.885 18.8903 142.086 19.3697 141.157 19.7248C140.234 20.074 139.189 20.2486 138.023 20.2486C136.401 20.2486 134.951 19.8816 133.673 19.1477C132.4 18.4138 131.394 17.3514 130.654 15.9606C129.921 14.5697 129.554 12.8859 129.554 10.9091C129.554 8.92637 129.926 7.23958 130.672 5.84872C131.418 4.45786 132.43 3.39844 133.708 2.67045C134.987 1.93655 136.425 1.5696 138.023 1.5696C139.077 1.5696 140.053 1.71757 140.953 2.01349C141.858 2.30942 142.66 2.74148 143.359 3.30966C144.057 3.87192 144.625 4.56143 145.063 5.3782C145.507 6.19496 145.791 7.13009 145.915 8.18359ZM157.346 14.1939V6.36364H161.128V20H157.497V17.5231H157.355C157.047 18.3221 156.535 18.9643 155.819 19.4496C155.108 19.9349 154.241 20.1776 153.218 20.1776C152.306 20.1776 151.504 19.9704 150.812 19.5561C150.119 19.1418 149.578 18.5529 149.187 17.7894C148.802 17.0259 148.607 16.1115 148.601 15.0462V6.36364H152.383V14.3714C152.389 15.1764 152.605 15.8126 153.031 16.2802C153.457 16.7478 154.028 16.9815 154.744 16.9815C155.2 16.9815 155.626 16.878 156.023 16.6708C156.419 16.4577 156.739 16.1441 156.982 15.7298C157.23 15.3155 157.352 14.8035 157.346 14.1939ZM167.935 1.81818V20H164.153V1.81818H167.935ZM178.218 6.36364V9.20455H170.006V6.36364H178.218ZM171.87 3.09659H175.652V15.8097C175.652 16.1589 175.705 16.4311 175.812 16.6264C175.918 16.8158 176.066 16.949 176.256 17.0259C176.451 17.1029 176.676 17.1413 176.93 17.1413C177.108 17.1413 177.285 17.1265 177.463 17.0969C177.64 17.0614 177.777 17.0348 177.871 17.017L178.466 19.8313C178.277 19.8905 178.01 19.9586 177.667 20.0355C177.324 20.1184 176.907 20.1687 176.415 20.1864C175.504 20.2219 174.705 20.1006 174.018 19.8224C173.338 19.5443 172.808 19.1122 172.429 18.5263C172.05 17.9403 171.864 17.2005 171.87 16.3068V3.09659Z" fill="#CADCE3"/>
</g>
<defs>
<filter id="filter0_d_1_46" x="0.260653" y="0.779472" width="182.205" height="27.4869" filterUnits="userSpaceOnUse" color-interpolation-filters="sRGB">
<feFlood flood-opacity="0" result="BackgroundImageFix"/>
<feColorMatrix in="SourceAlpha" type="matrix" values="0 0 0 0 0 0 0 0 0 0 0 0 0 0 0 0 0 0 127 0" result="hardAlpha"/>
<feOffset dy="4"/>
<feGaussianBlur stdDeviation="2"/>
<feComposite in2="hardAlpha" operator="out"/>
<feColorMatrix type="matrix" values="0 0 0 0 0 0 0 0 0 0 0 0 0 0 0 0 0 0 0.25 0"/>
<feBlend mode="normal" in2="BackgroundImageFix" result="effect1_dropShadow_1_46"/>
<feBlend mode="normal" in="SourceGraphic" in2="effect1_dropShadow_1_46" result="shape"/>
</filter>
</defs>
</svg>
