<svg width="53" height="51" viewBox="0 0 53 51" fill="none" xmlns="http://www.w3.org/2000/svg">
<circle cx="25.5" cy="25.5" r="25.5" fill="#2135EB"/>
<path d="M5.96348 41.4947C48.1771 39.838 2.99994 7.99999 45.9999 10.5" stroke="#C96C25" stroke-width="0.5"/>
<path d="M6.38474 42.7205C48.5984 41.0638 4.00007 9.50003 47 12" stroke="#C96C25" stroke-width="0.5"/>
<path d="M7.87654 43.8074C51.5941 44.915 3.12546 7.88638 47.9441 13.5221" stroke="#C96C25" stroke-width="0.5"/>
<path d="M23 19C23 19.56 23.45 20 24 20H29.59L18.7 30.89C18.31 31.28 18.31 31.91 18.7 32.3C19.09 32.69 19.72 32.69 20.11 32.3L31 21.41V27C31 27.55 31.45 28 32 28C32.55 28 33 27.55 33 27V19C33 18.45 32.55 18 32 18H24C23.45 18 23 18.45 23 19Z" fill="#CADCE3"/>
</svg>
